<mxfile host="Electron" agent="Mozilla/5.0 (Windows NT 10.0; Win64; x64) AppleWebKit/537.36 (KHTML, like Gecko) draw.io/24.7.5 Chrome/126.0.6478.183 Electron/31.3.0 Safari/537.36" version="24.7.5">
  <diagram name="Page-1" id="gI0PFV1aYqmWlTs2NGL_">
    <mxGraphModel dx="864" dy="511" grid="1" gridSize="10" guides="1" tooltips="1" connect="1" arrows="1" fold="1" page="1" pageScale="1" pageWidth="850" pageHeight="1100" math="0" shadow="0">
      <root>
        <mxCell id="0" />
        <mxCell id="1" parent="0" />
        <mxCell id="4lu8iwKWD-q7wUPmNmo7-2" value="Project" style="swimlane;fontStyle=1;align=center;verticalAlign=top;childLayout=stackLayout;horizontal=1;startSize=26;horizontalStack=0;resizeParent=1;resizeParentMax=0;resizeLast=0;collapsible=1;marginBottom=0;whiteSpace=wrap;html=1;" parent="1" vertex="1">
          <mxGeometry x="160" y="160" width="160" height="190" as="geometry" />
        </mxCell>
        <mxCell id="4lu8iwKWD-q7wUPmNmo7-3" value="+ IState State" style="text;strokeColor=none;fillColor=none;align=left;verticalAlign=top;spacingLeft=4;spacingRight=4;overflow=hidden;rotatable=0;points=[[0,0.5],[1,0.5]];portConstraint=eastwest;whiteSpace=wrap;html=1;" parent="4lu8iwKWD-q7wUPmNmo7-2" vertex="1">
          <mxGeometry y="26" width="160" height="26" as="geometry" />
        </mxCell>
        <mxCell id="4lu8iwKWD-q7wUPmNmo7-4" value="" style="line;strokeWidth=1;fillColor=none;align=left;verticalAlign=middle;spacingTop=-1;spacingLeft=3;spacingRight=3;rotatable=0;labelPosition=right;points=[];portConstraint=eastwest;strokeColor=inherit;" parent="4lu8iwKWD-q7wUPmNmo7-2" vertex="1">
          <mxGeometry y="52" width="160" height="8" as="geometry" />
        </mxCell>
        <mxCell id="4lu8iwKWD-q7wUPmNmo7-6" value="+ Complete()" style="text;strokeColor=none;fillColor=none;align=left;verticalAlign=top;spacingLeft=4;spacingRight=4;overflow=hidden;rotatable=0;points=[[0,0.5],[1,0.5]];portConstraint=eastwest;whiteSpace=wrap;html=1;" parent="4lu8iwKWD-q7wUPmNmo7-2" vertex="1">
          <mxGeometry y="60" width="160" height="26" as="geometry" />
        </mxCell>
        <mxCell id="4lu8iwKWD-q7wUPmNmo7-12" value="+ Plan()" style="text;strokeColor=none;fillColor=none;align=left;verticalAlign=top;spacingLeft=4;spacingRight=4;overflow=hidden;rotatable=0;points=[[0,0.5],[1,0.5]];portConstraint=eastwest;whiteSpace=wrap;html=1;" parent="4lu8iwKWD-q7wUPmNmo7-2" vertex="1">
          <mxGeometry y="86" width="160" height="26" as="geometry" />
        </mxCell>
        <mxCell id="f8xsEI6ufUixYdAAvo_0-1" value="+ Approve()" style="text;strokeColor=none;fillColor=none;align=left;verticalAlign=top;spacingLeft=4;spacingRight=4;overflow=hidden;rotatable=0;points=[[0,0.5],[1,0.5]];portConstraint=eastwest;whiteSpace=wrap;html=1;" vertex="1" parent="4lu8iwKWD-q7wUPmNmo7-2">
          <mxGeometry y="112" width="160" height="26" as="geometry" />
        </mxCell>
        <mxCell id="f8xsEI6ufUixYdAAvo_0-2" value="+ Propose()" style="text;strokeColor=none;fillColor=none;align=left;verticalAlign=top;spacingLeft=4;spacingRight=4;overflow=hidden;rotatable=0;points=[[0,0.5],[1,0.5]];portConstraint=eastwest;whiteSpace=wrap;html=1;" vertex="1" parent="4lu8iwKWD-q7wUPmNmo7-2">
          <mxGeometry y="138" width="160" height="26" as="geometry" />
        </mxCell>
        <mxCell id="4lu8iwKWD-q7wUPmNmo7-5" value="+ Cancell()" style="text;strokeColor=none;fillColor=none;align=left;verticalAlign=top;spacingLeft=4;spacingRight=4;overflow=hidden;rotatable=0;points=[[0,0.5],[1,0.5]];portConstraint=eastwest;whiteSpace=wrap;html=1;" parent="4lu8iwKWD-q7wUPmNmo7-2" vertex="1">
          <mxGeometry y="164" width="160" height="26" as="geometry" />
        </mxCell>
        <mxCell id="4lu8iwKWD-q7wUPmNmo7-13" value="&lt;p style=&quot;margin:0px;margin-top:4px;text-align:center;&quot;&gt;&lt;i&gt;&amp;lt;&amp;lt;Interface&amp;gt;&amp;gt;&lt;/i&gt;&lt;br&gt;&lt;b&gt;IState&lt;/b&gt;&lt;/p&gt;&lt;hr size=&quot;1&quot; style=&quot;border-style:solid;&quot;&gt;&lt;p style=&quot;margin:0px;margin-left:4px;&quot;&gt;+ context : Project&lt;br&gt;&lt;/p&gt;&lt;hr size=&quot;1&quot; style=&quot;border-style:solid;&quot;&gt;&lt;p style=&quot;margin:0px;margin-left:4px;&quot;&gt;+ Complete()&lt;/p&gt;&lt;p style=&quot;margin:0px;margin-left:4px;&quot;&gt;&lt;span style=&quot;background-color: initial;&quot;&gt;+ Plan()&lt;/span&gt;&lt;br&gt;&lt;/p&gt;&lt;p style=&quot;margin:0px;margin-left:4px;&quot;&gt;&lt;span style=&quot;background-color: initial;&quot;&gt;+ Cancell()&lt;/span&gt;&lt;br&gt;&lt;/p&gt;&lt;p style=&quot;margin:0px;margin-left:4px;&quot;&gt;&lt;span style=&quot;background-color: initial;&quot;&gt;+ Approve()&lt;/span&gt;&lt;/p&gt;&lt;p style=&quot;margin:0px;margin-left:4px;&quot;&gt;&lt;span style=&quot;background-color: initial;&quot;&gt;+ Propose&lt;/span&gt;&lt;/p&gt;" style="verticalAlign=top;align=left;overflow=fill;html=1;whiteSpace=wrap;" parent="1" vertex="1">
          <mxGeometry x="480" y="170" width="190" height="150" as="geometry" />
        </mxCell>
        <mxCell id="4lu8iwKWD-q7wUPmNmo7-14" style="edgeStyle=orthogonalEdgeStyle;rounded=0;orthogonalLoop=1;jettySize=auto;html=1;endArrow=none;endFill=0;jumpSize=16;endSize=12;startArrow=diamondThin;startFill=0;startSize=17;" parent="1" source="4lu8iwKWD-q7wUPmNmo7-2" target="4lu8iwKWD-q7wUPmNmo7-13" edge="1">
          <mxGeometry relative="1" as="geometry">
            <mxPoint x="390" y="330" as="targetPoint" />
            <Array as="points">
              <mxPoint x="370" y="240" />
              <mxPoint x="370" y="240" />
            </Array>
          </mxGeometry>
        </mxCell>
        <mxCell id="4lu8iwKWD-q7wUPmNmo7-21" style="rounded=0;orthogonalLoop=1;jettySize=auto;html=1;endArrow=block;endFill=0;jumpSize=9;endSize=12;exitX=0.644;exitY=0.007;exitDx=0;exitDy=0;exitPerimeter=0;dashed=1;dashPattern=8 8;entryX=0.5;entryY=1;entryDx=0;entryDy=0;" parent="1" source="4lu8iwKWD-q7wUPmNmo7-15" edge="1" target="4lu8iwKWD-q7wUPmNmo7-13">
          <mxGeometry relative="1" as="geometry">
            <mxPoint x="575" y="310" as="targetPoint" />
          </mxGeometry>
        </mxCell>
        <mxCell id="4lu8iwKWD-q7wUPmNmo7-15" value="Cancelled State" style="swimlane;fontStyle=1;align=center;verticalAlign=top;childLayout=stackLayout;horizontal=1;startSize=26;horizontalStack=0;resizeParent=1;resizeParentMax=0;resizeLast=0;collapsible=1;marginBottom=0;whiteSpace=wrap;html=1;" parent="1" vertex="1">
          <mxGeometry x="345" y="400" width="160" height="190" as="geometry" />
        </mxCell>
        <mxCell id="4lu8iwKWD-q7wUPmNmo7-16" value="+ Project Context" style="text;strokeColor=none;fillColor=none;align=left;verticalAlign=top;spacingLeft=4;spacingRight=4;overflow=hidden;rotatable=0;points=[[0,0.5],[1,0.5]];portConstraint=eastwest;whiteSpace=wrap;html=1;" parent="4lu8iwKWD-q7wUPmNmo7-15" vertex="1">
          <mxGeometry y="26" width="160" height="26" as="geometry" />
        </mxCell>
        <mxCell id="4lu8iwKWD-q7wUPmNmo7-17" value="" style="line;strokeWidth=1;fillColor=none;align=left;verticalAlign=middle;spacingTop=-1;spacingLeft=3;spacingRight=3;rotatable=0;labelPosition=right;points=[];portConstraint=eastwest;strokeColor=inherit;" parent="4lu8iwKWD-q7wUPmNmo7-15" vertex="1">
          <mxGeometry y="52" width="160" height="8" as="geometry" />
        </mxCell>
        <mxCell id="f8xsEI6ufUixYdAAvo_0-7" value="+ Approve()" style="text;strokeColor=none;fillColor=none;align=left;verticalAlign=top;spacingLeft=4;spacingRight=4;overflow=hidden;rotatable=0;points=[[0,0.5],[1,0.5]];portConstraint=eastwest;whiteSpace=wrap;html=1;" vertex="1" parent="4lu8iwKWD-q7wUPmNmo7-15">
          <mxGeometry y="60" width="160" height="26" as="geometry" />
        </mxCell>
        <mxCell id="4lu8iwKWD-q7wUPmNmo7-18" value="+ Complete()" style="text;strokeColor=none;fillColor=none;align=left;verticalAlign=top;spacingLeft=4;spacingRight=4;overflow=hidden;rotatable=0;points=[[0,0.5],[1,0.5]];portConstraint=eastwest;whiteSpace=wrap;html=1;" parent="4lu8iwKWD-q7wUPmNmo7-15" vertex="1">
          <mxGeometry y="86" width="160" height="26" as="geometry" />
        </mxCell>
        <mxCell id="f8xsEI6ufUixYdAAvo_0-5" value="+ Propose()" style="text;strokeColor=none;fillColor=none;align=left;verticalAlign=top;spacingLeft=4;spacingRight=4;overflow=hidden;rotatable=0;points=[[0,0.5],[1,0.5]];portConstraint=eastwest;whiteSpace=wrap;html=1;" vertex="1" parent="4lu8iwKWD-q7wUPmNmo7-15">
          <mxGeometry y="112" width="160" height="26" as="geometry" />
        </mxCell>
        <mxCell id="4lu8iwKWD-q7wUPmNmo7-19" value="+ Plan()" style="text;strokeColor=none;fillColor=none;align=left;verticalAlign=top;spacingLeft=4;spacingRight=4;overflow=hidden;rotatable=0;points=[[0,0.5],[1,0.5]];portConstraint=eastwest;whiteSpace=wrap;html=1;" parent="4lu8iwKWD-q7wUPmNmo7-15" vertex="1">
          <mxGeometry y="138" width="160" height="26" as="geometry" />
        </mxCell>
        <mxCell id="4lu8iwKWD-q7wUPmNmo7-20" value="+ Cancell()" style="text;strokeColor=none;fillColor=none;align=left;verticalAlign=top;spacingLeft=4;spacingRight=4;overflow=hidden;rotatable=0;points=[[0,0.5],[1,0.5]];portConstraint=eastwest;whiteSpace=wrap;html=1;" parent="4lu8iwKWD-q7wUPmNmo7-15" vertex="1">
          <mxGeometry y="164" width="160" height="26" as="geometry" />
        </mxCell>
        <mxCell id="4lu8iwKWD-q7wUPmNmo7-22" value="In ProgressState" style="swimlane;fontStyle=1;align=center;verticalAlign=top;childLayout=stackLayout;horizontal=1;startSize=26;horizontalStack=0;resizeParent=1;resizeParentMax=0;resizeLast=0;collapsible=1;marginBottom=0;whiteSpace=wrap;html=1;" parent="1" vertex="1">
          <mxGeometry x="610" y="400" width="160" height="190" as="geometry" />
        </mxCell>
        <mxCell id="4lu8iwKWD-q7wUPmNmo7-23" value="+ Project Context" style="text;strokeColor=none;fillColor=none;align=left;verticalAlign=top;spacingLeft=4;spacingRight=4;overflow=hidden;rotatable=0;points=[[0,0.5],[1,0.5]];portConstraint=eastwest;whiteSpace=wrap;html=1;" parent="4lu8iwKWD-q7wUPmNmo7-22" vertex="1">
          <mxGeometry y="26" width="160" height="26" as="geometry" />
        </mxCell>
        <mxCell id="4lu8iwKWD-q7wUPmNmo7-24" value="" style="line;strokeWidth=1;fillColor=none;align=left;verticalAlign=middle;spacingTop=-1;spacingLeft=3;spacingRight=3;rotatable=0;labelPosition=right;points=[];portConstraint=eastwest;strokeColor=inherit;" parent="4lu8iwKWD-q7wUPmNmo7-22" vertex="1">
          <mxGeometry y="52" width="160" height="8" as="geometry" />
        </mxCell>
        <mxCell id="4lu8iwKWD-q7wUPmNmo7-25" value="+ Complete()" style="text;strokeColor=none;fillColor=none;align=left;verticalAlign=top;spacingLeft=4;spacingRight=4;overflow=hidden;rotatable=0;points=[[0,0.5],[1,0.5]];portConstraint=eastwest;whiteSpace=wrap;html=1;" parent="4lu8iwKWD-q7wUPmNmo7-22" vertex="1">
          <mxGeometry y="60" width="160" height="26" as="geometry" />
        </mxCell>
        <mxCell id="f8xsEI6ufUixYdAAvo_0-6" value="+ Propose()" style="text;strokeColor=none;fillColor=none;align=left;verticalAlign=top;spacingLeft=4;spacingRight=4;overflow=hidden;rotatable=0;points=[[0,0.5],[1,0.5]];portConstraint=eastwest;whiteSpace=wrap;html=1;" vertex="1" parent="4lu8iwKWD-q7wUPmNmo7-22">
          <mxGeometry y="86" width="160" height="26" as="geometry" />
        </mxCell>
        <mxCell id="f8xsEI6ufUixYdAAvo_0-8" value="+ Approve()" style="text;strokeColor=none;fillColor=none;align=left;verticalAlign=top;spacingLeft=4;spacingRight=4;overflow=hidden;rotatable=0;points=[[0,0.5],[1,0.5]];portConstraint=eastwest;whiteSpace=wrap;html=1;" vertex="1" parent="4lu8iwKWD-q7wUPmNmo7-22">
          <mxGeometry y="112" width="160" height="26" as="geometry" />
        </mxCell>
        <mxCell id="4lu8iwKWD-q7wUPmNmo7-26" value="+ Plan()" style="text;strokeColor=none;fillColor=none;align=left;verticalAlign=top;spacingLeft=4;spacingRight=4;overflow=hidden;rotatable=0;points=[[0,0.5],[1,0.5]];portConstraint=eastwest;whiteSpace=wrap;html=1;" parent="4lu8iwKWD-q7wUPmNmo7-22" vertex="1">
          <mxGeometry y="138" width="160" height="26" as="geometry" />
        </mxCell>
        <mxCell id="4lu8iwKWD-q7wUPmNmo7-27" value="+ Cancell()" style="text;strokeColor=none;fillColor=none;align=left;verticalAlign=top;spacingLeft=4;spacingRight=4;overflow=hidden;rotatable=0;points=[[0,0.5],[1,0.5]];portConstraint=eastwest;whiteSpace=wrap;html=1;" parent="4lu8iwKWD-q7wUPmNmo7-22" vertex="1">
          <mxGeometry y="164" width="160" height="26" as="geometry" />
        </mxCell>
        <mxCell id="4lu8iwKWD-q7wUPmNmo7-28" style="rounded=0;orthogonalLoop=1;jettySize=auto;html=1;endArrow=block;endFill=0;jumpSize=9;endSize=12;exitX=0.5;exitY=0;exitDx=0;exitDy=0;entryX=0.5;entryY=1;entryDx=0;entryDy=0;dashed=1;dashPattern=8 8;" parent="1" source="4lu8iwKWD-q7wUPmNmo7-22" target="4lu8iwKWD-q7wUPmNmo7-13" edge="1">
          <mxGeometry relative="1" as="geometry">
            <mxPoint x="451" y="400" as="sourcePoint" />
            <mxPoint x="523" y="320" as="targetPoint" />
          </mxGeometry>
        </mxCell>
        <mxCell id="4lu8iwKWD-q7wUPmNmo7-30" value="&lt;font style=&quot;font-size: 22px;&quot;&gt;....&lt;/font&gt;" style="text;html=1;align=center;verticalAlign=middle;resizable=0;points=[];autosize=1;strokeColor=#666666;fillColor=#f5f5f5;fontColor=#333333;" parent="1" vertex="1">
          <mxGeometry x="530" y="439" width="50" height="40" as="geometry" />
        </mxCell>
      </root>
    </mxGraphModel>
  </diagram>
</mxfile>
